<svg xmlns="http://www.w3.org/2000/svg" viewBox="0 0 100 100" width="100" height="100">
  <!-- Background Circle -->
  <circle cx="50" cy="50" r="46" fill="#26a69a" />
  <circle cx="50" cy="50" r="42" fill="#00796b" />
  
  <!-- Dollar Sign -->
  <path d="M50 15C30.67 15 15 30.67 15 50s15.67 35 35 35 35-15.67 35-35S69.33 15 50 15zm0 66c-17.12 0-31-13.88-31-31s13.88-31 31-31 31 13.88 31 31-13.88 31-31 31z" fill="#4CAF50" />
  
  <!-- Large S -->
  <path d="M57.5 43.75c0 5.4-4.35 8.15-8.75 9v5.5h-2.5v-5.4c-3.45-.55-6.55-2.2-8.75-4.5l2.65-3.35c1.85 1.8 4.1 3.15 6.6 3.6v-8.1c-5.05-1.25-9.25-3.45-9.25-8.75 0-4.6 3.7-8 8.75-8.75v-3.25h2.5V23c2.9.35 5.5 1.5 7.5 3.5l-2.5 3.25c-1.6-1.35-3.25-2.25-5-2.55v7.3c5.3 1.3 9.25 3.25 9.25 9.25zM43.5 30c0 1.8 1.5 2.9 4.75 3.75v-7c-2.9.4-4.75 1.55-4.75 3.25zm7.5 13.75v7.5c3.2-.45 5.25-1.95 5.25-3.95 0-2.15-1.65-3.05-5.25-3.55z" fill="white" />

  <!-- Spin Text -->
  <path d="M20 64.5c.8 0 1.5.2 2 .6.5.4.8 1 .8 1.6 0 .4-.1.7-.3 1-.2.3-.5.5-.9.7.5.1.9.4 1.2.7.3.3.4.8.4 1.3 0 .7-.3 1.3-.8 1.7-.6.4-1.3.6-2.2.6h-3.3v-8.2H20zm-.2 3.4c.4 0 .7-.1.9-.2.2-.2.3-.4.3-.7s-.1-.5-.3-.7c-.2-.2-.5-.2-.9-.2h-1.1v1.9h1.1zm.2 3.4c.4 0 .8-.1 1-.3.2-.2.3-.4.3-.8 0-.3-.1-.6-.3-.8-.2-.2-.6-.3-1-.3h-1.3v2.2h1.3z" fill="white" />
  <path d="M28.4 72.7c-.7 0-1.3-.1-1.8-.4-.5-.3-.9-.7-1.2-1.2-.3-.5-.4-1.1-.4-1.8s.1-1.3.4-1.8c.3-.5.7-.9 1.2-1.2.5-.3 1.1-.4 1.8-.4.7 0 1.3.1 1.8.4.5.3.9.7 1.2 1.2.3.5.4 1.1.4 1.8s-.1 1.3-.4 1.8c-.3.5-.7.9-1.2 1.2-.5.3-1.1.4-1.8.4zm0-1.6c.5 0 .8-.2 1.1-.5.3-.3.4-.8.4-1.3s-.1-1-.4-1.3c-.3-.3-.6-.5-1.1-.5s-.8.2-1.1.5c-.3.3-.4.8-.4 1.3s.1 1 .4 1.3c.3.3.7.5 1.1.5z" fill="white" />
  <path d="M32.9 66h1.9v.9c.2-.3.4-.6.8-.8.3-.2.7-.3 1.1-.3.7 0 1.2.2 1.6.6.4.4.6 1 .6 1.8v4.5h-2v-3.9c0-.4-.1-.8-.3-1s-.5-.3-.9-.3c-.4 0-.7.1-.9.4-.2.3-.3.7-.3 1.2v3.6h-2V66z" fill="white" />
  
  <!-- Earn Text -->
  <path d="M48.2 69.2c.5.1.9.3 1.2.6.3.3.4.7.4 1.2 0 .7-.3 1.2-.8 1.6s-1.3.5-2.3.5c-.8 0-1.5-.1-2.1-.4-.6-.3-1-.7-1.3-1.2l1.2-1c.2.3.5.6.9.8.4.2.8.3 1.3.3.3 0 .6-.1.8-.2.2-.1.3-.3.3-.5s-.1-.4-.2-.5c-.2-.1-.4-.2-.7-.2h-1.3v-1.4h1.1c.3 0 .6-.1.7-.2.2-.1.2-.3.2-.5s-.1-.4-.3-.5c-.2-.1-.4-.2-.7-.2-.4 0-.7.1-1 .2-.3.2-.5.4-.7.7l-1.3-1c.3-.5.7-.8 1.2-1.1.5-.3 1.1-.4 1.8-.4.5 0 1 .1 1.4.2.4.2.8.4 1 .7.2.3.4.7.4 1.1 0 .4-.1.8-.4 1-.2.3-.5.5-1 .6z" fill="white" />
  <path d="M54.6 72.7c-.7 0-1.2-.1-1.7-.4-.5-.3-.8-.7-1.1-1.2-.3-.5-.4-1.1-.4-1.8s.1-1.3.4-1.8c.3-.5.6-.9 1.1-1.2.5-.3 1-.4 1.7-.4.6 0 1.2.1 1.6.4.5.3.8.6 1.1 1.1.3.5.4 1 .4 1.6 0 .2 0 .4-.1.6h-4.4c.1.4.2.7.5.9.3.2.6.3 1 .3.3 0 .6-.1.8-.2.2-.1.4-.3.6-.5l1.2.9c-.3.4-.6.7-1.1.9-.4.5-1 .8-1.6.8zm1.5-3.8c0-.4-.1-.7-.4-.9-.2-.2-.5-.3-.9-.3-.3 0-.6.1-.9.3-.2.2-.4.5-.5.9h2.7z" fill="white" />
  <path d="M62.2 72.7c-.7 0-1.2-.1-1.7-.4-.5-.3-.8-.7-1.1-1.2-.3-.5-.4-1.1-.4-1.8s.1-1.3.4-1.8c.3-.5.6-.9 1.1-1.2.5-.3 1-.4 1.7-.4.6 0 1.2.1 1.6.4.5.3.8.6 1.1 1.1.3.5.4 1 .4 1.6 0 .2 0 .4-.1.6h-4.4c.1.4.2.7.5.9.3.2.6.3 1 .3.3 0 .6-.1.8-.2.2-.1.4-.3.6-.5l1.2.9c-.3.4-.6.7-1.1.9-.4.5-1 .8-1.6.8zm1.5-3.8c0-.4-.1-.7-.4-.9-.2-.2-.5-.3-.9-.3-.3 0-.6.1-.9.3-.2.2-.4.5-.5.9h2.7z" fill="white" />
  <path d="M71.1 66h2v6.7h-1.9v-.9c-.4.7-1.1 1-2 1-.5 0-1-.1-1.4-.4-.4-.3-.7-.6-.9-1.1-.2-.5-.3-1-.3-1.7s.1-1.2.3-1.7c.2-.5.5-.9.9-1.1.4-.3.9-.4 1.4-.4.9 0 1.6.3 2 1V66zm-1.8 5.1c.4 0 .7-.1.9-.4.2-.3.4-.7.4-1.2s-.1-.9-.4-1.2c-.2-.3-.5-.4-.9-.4s-.7.1-.9.4c-.2.3-.4.7-.4 1.2s.1.9.4 1.2c.2.3.5.4.9.4z" fill="white" />
  <path d="M77.7 72.7c-.7 0-1.3-.1-1.8-.4-.5-.3-.9-.7-1.2-1.2-.3-.5-.4-1.1-.4-1.8s.1-1.3.4-1.8c.3-.5.7-.9 1.2-1.2.5-.3 1.1-.4 1.8-.4.7 0 1.3.1 1.8.4.5.3.9.7 1.2 1.2.3.5.4 1.1.4 1.8s-.1 1.3-.4 1.8c-.3.5-.7.9-1.2 1.2-.5.3-1.1.4-1.8.4zm0-1.6c.5 0 .8-.2 1.1-.5.3-.3.4-.8.4-1.3s-.1-1-.4-1.3c-.3-.3-.6-.5-1.1-.5s-.8.2-1.1.5c-.3.3-.4.8-.4 1.3s.1 1 .4 1.3c.3.3.7.5 1.1.5z" fill="white" />
</svg>
